<svg width="25" height="21" viewBox="0 0 25 21" fill="none" xmlns="http://www.w3.org/2000/svg">
<g id="Frame 2">
<path id="Vector" d="M25 8.62508V9.37507C25 9.9964 24.5336 10.5001 23.9583 10.5001H23.6111L22.4777 19.0682C22.3311 20.1766 21.4521 21 20.4154 21H4.58464C3.54787 21 2.66888 20.1766 2.52222 19.0682L1.38889 10.5001H1.04167C0.466363 10.5001 0 9.9964 0 9.37507V8.62508C0 8.00375 0.466363 7.50009 1.04167 7.50009H3.96445L8.599 0.617895C9.05017 -0.0520387 9.91875 -0.20021 10.5391 0.287053C11.1595 0.774315 11.2967 1.71242 10.8455 2.3824L7.39918 7.50009H17.6008L14.1545 2.38235C13.7033 1.71242 13.8405 0.774269 14.4609 0.287006C15.0812 -0.200257 15.9499 -0.0521324 16.401 0.617848L21.0355 7.50009H23.9583C24.5336 7.50009 25 8.00375 25 8.62508ZM13.5417 16.875V11.6251C13.5417 11.0037 13.0753 10.5001 12.5 10.5001C11.9247 10.5001 11.4583 11.0037 11.4583 11.6251V16.875C11.4583 17.4963 11.9247 18 12.5 18C13.0753 18 13.5417 17.4963 13.5417 16.875ZM18.4028 16.875V11.6251C18.4028 11.0037 17.9364 10.5001 17.3611 10.5001C16.7858 10.5001 16.3194 11.0037 16.3194 11.6251V16.875C16.3194 17.4963 16.7858 18 17.3611 18C17.9364 18 18.4028 17.4963 18.4028 16.875ZM8.68056 16.875V11.6251C8.68056 11.0037 8.21419 10.5001 7.63889 10.5001C7.06358 10.5001 6.59722 11.0037 6.59722 11.6251V16.875C6.59722 17.4963 7.06358 18 7.63889 18C8.21419 18 8.68056 17.4963 8.68056 16.875Z" fill="#040404"/>
</g>
</svg>
