<svg width="90" height="27" viewBox="0 0 90 27" fill="none" xmlns="http://www.w3.org/2000/svg">
<rect width="90" height="27"/>
<g id="Frame" clip-path="url(#clip0_0_1)">
<path id="Vector" d="M1.34644 22.166V26.4901L0.978663 26.1334H4.50057V26.8593H0.523621V22.166H1.34644ZM8.85951 24.1685V24.8568H5.59318V24.1685H8.85951ZM6.13549 24.5127L5.80511 26.609L5.41241 26.1459H9.04028V26.8593H4.9636L5.3376 24.5127L4.9636 22.166H9.00911V22.8794H5.41241L5.80511 22.4163L6.13549 24.5127ZM9.61145 25.3324H10.4467C10.4717 25.5202 10.5485 25.685 10.6774 25.8268C10.8103 25.9686 10.9848 26.0792 11.201 26.1585C11.4171 26.2336 11.6664 26.2711 11.949 26.2711C12.3687 26.2711 12.7011 26.2064 12.9464 26.0771C13.1915 25.9436 13.3141 25.7642 13.3141 25.5389C13.3141 25.3554 13.2435 25.2177 13.1022 25.1259C12.9609 25.0342 12.7053 24.9653 12.3355 24.9194L11.3257 24.788C10.7604 24.7129 10.349 24.5731 10.0914 24.3687C9.83788 24.1601 9.71119 23.866 9.71119 23.4864C9.71119 23.1985 9.79635 22.9503 9.96676 22.7417C10.1413 22.5289 10.3864 22.3662 10.7023 22.2536C11.0181 22.1368 11.388 22.0784 11.8119 22.0784C12.2315 22.0784 12.6035 22.1409 12.9277 22.2661C13.2518 22.3913 13.5094 22.5665 13.7006 22.7918C13.8959 23.0129 14.0018 23.2736 14.0185 23.574H13.1832C13.1624 23.4071 13.0918 23.2632 12.9713 23.1422C12.8549 23.0212 12.697 22.9273 12.4975 22.8606C12.2981 22.7897 12.0632 22.7542 11.7932 22.7542C11.4108 22.7542 11.1054 22.8168 10.8768 22.9419C10.6482 23.0671 10.534 23.2382 10.534 23.4551C10.534 23.6219 10.6005 23.7513 10.7335 23.8431C10.8706 23.9307 11.1075 23.9974 11.4441 24.0433L12.4664 24.1873C12.886 24.2457 13.2164 24.3249 13.4575 24.425C13.7026 24.521 13.8772 24.6524 13.9811 24.8193C14.085 24.982 14.1369 25.1927 14.1369 25.4513C14.1369 25.7517 14.0455 26.0145 13.8627 26.2398C13.6798 26.4651 13.4221 26.6403 13.0897 26.7655C12.7614 26.8865 12.377 26.9469 11.9365 26.9469C11.4877 26.9469 11.0908 26.8802 10.7459 26.7467C10.4051 26.609 10.1351 26.4192 9.93559 26.1772C9.73612 25.9353 9.62805 25.6537 9.61145 25.3324ZM21.4823 25.0008C21.4407 25.3846 21.3057 25.7246 21.0772 26.0208C20.8528 26.3128 20.5577 26.5402 20.192 26.7029C19.8263 26.8656 19.4086 26.9469 18.9391 26.9469C18.4155 26.9469 17.9562 26.8447 17.5615 26.6403C17.1667 26.4359 16.8591 26.1522 16.6389 25.7893C16.4187 25.4222 16.3086 24.9966 16.3086 24.5127C16.3086 24.0287 16.4187 23.6053 16.6389 23.2423C16.8591 22.8752 17.1667 22.5894 17.5615 22.385C17.9562 22.1806 18.4155 22.0784 18.9391 22.0784C19.4086 22.0784 19.8263 22.1597 20.192 22.3224C20.5577 22.4851 20.8528 22.7125 21.0772 23.0045C21.3057 23.2965 21.4407 23.6366 21.4823 24.0245H20.6533C20.6076 23.7742 20.5078 23.5594 20.3541 23.38C20.2045 23.2006 20.0091 23.063 19.7681 22.967C19.5271 22.8669 19.2487 22.8168 18.9329 22.8168C18.5671 22.8168 18.2492 22.8856 17.9791 23.0233C17.7131 23.161 17.5074 23.3571 17.362 23.6115C17.2166 23.866 17.1439 24.1664 17.1439 24.5127C17.1439 24.8589 17.2166 25.1593 17.362 25.4138C17.5074 25.6682 17.7131 25.8643 17.9791 26.002C18.2492 26.1397 18.5671 26.2085 18.9329 26.2085C19.2487 26.2085 19.5271 26.1606 19.7681 26.0646C20.0091 25.9686 20.2045 25.8309 20.3541 25.6516C20.5078 25.468 20.6076 25.2511 20.6533 25.0008H21.4823ZM22.6475 25.783V25.1009H25.9138V25.783H22.6475ZM24.8168 22.166L27.0608 26.8593H26.1819L24.1435 22.4789H24.4614L22.4231 26.8593H21.5442L23.7882 22.166H24.8168ZM28.1294 24.8443C28.1294 25.1238 28.1855 25.3658 28.2977 25.5702C28.4099 25.7746 28.5699 25.9332 28.7777 26.0458C28.9896 26.1543 29.241 26.2085 29.5319 26.2085C29.827 26.2085 30.0784 26.1543 30.2862 26.0458C30.494 25.9332 30.6539 25.7746 30.7661 25.5702C30.8783 25.3658 30.9344 25.1238 30.9344 24.8443V22.166H31.7573V24.8756C31.7573 25.2886 31.6638 25.6516 31.4768 25.9645C31.2898 26.2732 31.03 26.5152 30.6976 26.6904C30.3651 26.8614 29.9766 26.9469 29.5319 26.9469C29.0914 26.9469 28.7029 26.8614 28.3663 26.6904C28.0338 26.5152 27.7741 26.2732 27.5871 25.9645C27.4001 25.6516 27.3066 25.2886 27.3066 24.8756V22.166H28.1294V24.8443ZM33.3175 24.2811H35.2187C35.493 24.2811 35.7091 24.2185 35.867 24.0934C36.0291 23.9682 36.1101 23.7972 36.1101 23.5802C36.1101 23.3591 36.0291 23.1881 35.867 23.0671C35.7091 22.9419 35.493 22.8794 35.2187 22.8794H33.1991L33.5669 22.4163V26.8593H32.744V22.166H35.2935C35.6218 22.166 35.9085 22.2264 36.1537 22.3475C36.4031 22.4642 36.5963 22.6291 36.7335 22.8418C36.8747 23.0504 36.9454 23.2965 36.9454 23.5802C36.9454 23.8556 36.8747 24.0996 36.7335 24.3124C36.5963 24.521 36.4031 24.6858 36.1537 24.8068C35.9085 24.9236 35.6218 24.982 35.2935 24.982H33.3175V24.2811ZM34.2401 24.6628H35.2063L37.0638 26.8593H36.0789L34.2401 24.6628ZM37.7966 22.166H38.6194V26.8593H37.7966V22.166ZM39.3786 25.3324H40.2139C40.2388 25.5202 40.3157 25.685 40.4445 25.8268C40.5775 25.9686 40.7521 26.0792 40.9681 26.1585C41.1843 26.2336 41.4336 26.2711 41.7162 26.2711C42.1359 26.2711 42.4684 26.2064 42.7135 26.0771C42.9587 25.9436 43.0813 25.7642 43.0813 25.5389C43.0813 25.3554 43.0107 25.2177 42.8694 25.1259C42.7281 25.0342 42.4725 24.9653 42.1026 24.9194L41.0928 24.788C40.5277 24.7129 40.1163 24.5731 39.8586 24.3687C39.6051 24.1601 39.4784 23.866 39.4784 23.4864C39.4784 23.1985 39.5636 22.9503 39.7339 22.7417C39.9085 22.5289 40.1537 22.3662 40.4695 22.2536C40.7853 22.1368 41.1552 22.0784 41.579 22.0784C41.9988 22.0784 42.3707 22.1409 42.6948 22.2661C43.019 22.3913 43.2766 22.5665 43.4678 22.7918C43.6631 23.0129 43.7691 23.2736 43.7857 23.574H42.9504C42.9297 23.4071 42.859 23.2632 42.7385 23.1422C42.6221 23.0212 42.4642 22.9273 42.2647 22.8606C42.0652 22.7897 41.8305 22.7542 41.5603 22.7542C41.1781 22.7542 40.8726 22.8168 40.644 22.9419C40.4155 23.0671 40.3012 23.2382 40.3012 23.4551C40.3012 23.6219 40.3677 23.7513 40.5006 23.8431C40.6378 23.9307 40.8746 23.9974 41.2113 24.0433L42.2335 24.1873C42.6533 24.2457 42.9837 24.3249 43.2247 24.425C43.4699 24.521 43.6444 24.6524 43.7483 24.8193C43.8522 24.982 43.9041 25.1927 43.9041 25.4513C43.9041 25.7517 43.8127 26.0145 43.6298 26.2398C43.447 26.4651 43.1894 26.6403 42.8569 26.7655C42.5286 26.8865 42.1442 26.9469 41.7037 26.9469C41.2549 26.9469 40.858 26.8802 40.5131 26.7467C40.1724 26.609 39.9022 26.4192 39.7028 26.1772C39.5033 25.9353 39.3953 25.6537 39.3786 25.3324ZM46.0321 25.3324H46.8674C46.8923 25.5202 46.9692 25.685 47.098 25.8268C47.231 25.9686 47.4056 26.0792 47.6216 26.1585C47.8378 26.2336 48.0871 26.2711 48.3697 26.2711C48.7894 26.2711 49.1219 26.2064 49.367 26.0771C49.6122 25.9436 49.7348 25.7642 49.7348 25.5389C49.7348 25.3554 49.6642 25.2177 49.5228 25.1259C49.3816 25.0342 49.126 24.9653 48.7561 24.9194L47.7463 24.788C47.1812 24.7129 46.7697 24.5731 46.5121 24.3687C46.2586 24.1601 46.1318 23.866 46.1318 23.4864C46.1318 23.1985 46.2171 22.9503 46.3874 22.7417C46.5619 22.5289 46.8071 22.3662 47.123 22.2536C47.4388 22.1368 47.8086 22.0784 48.2325 22.0784C48.6523 22.0784 49.0242 22.1409 49.3483 22.2661C49.6724 22.3913 49.9301 22.5665 50.1213 22.7918C50.3166 23.0129 50.4226 23.2736 50.4392 23.574H49.6039C49.5831 23.4071 49.5125 23.2632 49.3919 23.1422C49.2756 23.0212 49.1177 22.9273 48.9182 22.8606C48.7187 22.7897 48.484 22.7542 48.2138 22.7542C47.8315 22.7542 47.5261 22.8168 47.2975 22.9419C47.069 23.0671 46.9547 23.2382 46.9547 23.4551C46.9547 23.6219 47.0212 23.7513 47.1541 23.8431C47.2913 23.9307 47.5281 23.9974 47.8647 24.0433L48.887 24.1873C49.3068 24.2457 49.6371 24.3249 49.8781 24.425C50.1234 24.521 50.2979 24.6524 50.4018 24.8193C50.5057 24.982 50.5576 25.1927 50.5576 25.4513C50.5576 25.7517 50.4662 26.0145 50.2833 26.2398C50.1005 26.4651 49.8428 26.6403 49.5104 26.7655C49.1821 26.8865 48.7977 26.9469 48.3572 26.9469C47.9084 26.9469 47.5115 26.8802 47.1666 26.7467C46.8259 26.609 46.5557 26.4192 46.3562 26.1772C46.1568 25.9353 46.0488 25.6537 46.0321 25.3324ZM51.3227 22.166H52.1455V26.8593H51.3227V22.166ZM55.1251 22.166H55.9479V26.8593H55.1251V22.166ZM51.7653 24.1309H55.5178V24.8568H51.7653V24.1309ZM57.6195 25.783V25.1009H60.8858V25.783H57.6195ZM59.7887 22.166L62.0328 26.8593H61.1538L59.1155 22.4789H59.4334L57.3951 26.8593H56.5162L58.7602 22.166H59.7887ZM62.0906 25.3324H62.9259C62.9508 25.5202 63.0277 25.685 63.1565 25.8268C63.2895 25.9686 63.464 26.0792 63.6802 26.1585C63.8962 26.2336 64.1456 26.2711 64.4282 26.2711C64.8478 26.2711 65.1803 26.2064 65.4255 26.0771C65.6707 25.9436 65.7933 25.7642 65.7933 25.5389C65.7933 25.3554 65.7226 25.2177 65.5814 25.1259C65.44 25.0342 65.1844 24.9653 64.8146 24.9194L63.8048 24.788C63.2396 24.7129 62.8282 24.5731 62.5706 24.3687C62.3171 24.1601 62.1904 23.866 62.1904 23.4864C62.1904 23.1985 62.2755 22.9503 62.4459 22.7417C62.6205 22.5289 62.8656 22.3662 63.1815 22.2536C63.4973 22.1368 63.8672 22.0784 64.291 22.0784C64.7107 22.0784 65.0827 22.1409 65.4068 22.2661C65.731 22.3913 65.9886 22.5665 66.1798 22.7918C66.375 23.0129 66.481 23.2736 66.4977 23.574H65.6624C65.6416 23.4071 65.5709 23.2632 65.4505 23.1422C65.3341 23.0212 65.1762 22.9273 64.9767 22.8606C64.7772 22.7897 64.5424 22.7542 64.2723 22.7542C63.89 22.7542 63.5846 22.8168 63.356 22.9419C63.1274 23.0671 63.0132 23.2382 63.0132 23.4551C63.0132 23.6219 63.0796 23.7513 63.2126 23.8431C63.3498 23.9307 63.5867 23.9974 63.9233 24.0433L64.9455 24.1873C65.3652 24.2457 65.6956 24.3249 65.9367 24.425C66.1818 24.521 66.3563 24.6524 66.4603 24.8193C66.5641 24.982 66.6161 25.1927 66.6161 25.4513C66.6161 25.7517 66.5246 26.0145 66.3418 26.2398C66.159 26.4651 65.9013 26.6403 65.5689 26.7655C65.2405 26.8865 64.8562 26.9469 64.4157 26.9469C63.9669 26.9469 63.57 26.8802 63.2251 26.7467C62.8843 26.609 62.6142 26.4192 62.4148 26.1772C62.2153 25.9353 62.1072 25.6537 62.0906 25.3324ZM67.7853 25.783V25.1009H71.0517V25.783H67.7853ZM69.9546 22.166L72.1989 26.8593H71.3199L69.2814 22.4789H69.5993L67.5609 26.8593H66.682L68.9261 22.166H69.9546ZM77.1009 26.3587L76.7641 26.3963V22.166H77.5618V26.8593H76.5147L73.2362 22.6291L73.5661 22.5915V26.8593H72.7683V22.166H73.8406L77.1009 26.3587ZM78.6061 22.166H79.429V26.8593H78.6061V22.166ZM80.1883 25.3324H81.0238C81.0483 25.5202 81.1254 25.685 81.2543 25.8268C81.3873 25.9686 81.5617 26.0792 81.7781 26.1585C81.9939 26.2336 82.2432 26.2711 82.5262 26.2711C82.9457 26.2711 83.2784 26.2064 83.5235 26.0771C83.7686 25.9436 83.8912 25.7642 83.8912 25.5389C83.8912 25.3554 83.8205 25.2177 83.679 25.1259C83.5375 25.0342 83.2819 24.9653 82.9121 24.9194L81.9028 24.788C81.3376 24.7129 80.9258 24.5731 80.668 24.3687C80.4145 24.1601 80.2884 23.866 80.2884 23.4864C80.2884 23.1985 80.3732 22.9503 80.5434 22.7417C80.7185 22.5289 80.9636 22.3662 81.2795 22.2536C81.5953 22.1368 81.9651 22.0784 82.3889 22.0784C82.8084 22.0784 83.1803 22.1409 83.5046 22.2661C83.8289 22.3913 84.0866 22.5665 84.2778 22.7918C84.4725 23.0129 84.579 23.2736 84.5951 23.574H83.7602C83.7392 23.4071 83.6685 23.2632 83.548 23.1422C83.4318 23.0212 83.2742 22.9273 83.0746 22.8606C82.875 22.7897 82.6403 22.7542 82.37 22.7542C81.9876 22.7542 81.6822 22.8168 81.4539 22.9419C81.2248 23.0671 81.1107 23.2382 81.1107 23.4551C81.1107 23.6219 81.1772 23.7513 81.3103 23.8431C81.4476 23.9307 81.6843 23.9974 82.0212 24.0433L83.043 24.1873C83.4633 24.2457 83.7932 24.3249 84.0341 24.425C84.2792 24.521 84.4543 24.6524 84.558 24.8193C84.6616 24.982 84.7142 25.1927 84.7142 25.4513C84.7142 25.7517 84.6224 26.0145 84.4396 26.2398C84.2568 26.4651 83.9991 26.6403 83.6664 26.7655C83.3386 26.8865 82.9541 26.9469 82.5135 26.9469C82.0646 26.9469 81.6675 26.8802 81.3229 26.7467C80.9818 26.609 80.7122 26.4192 80.5125 26.1772C80.3129 25.9353 80.2051 25.6537 80.1883 25.3324ZM85.1918 25.3324H86.0274C86.0526 25.5202 86.129 25.685 86.2578 25.8268C86.3909 25.9686 86.5653 26.0792 86.7817 26.1585C86.9974 26.2336 87.2468 26.2711 87.5297 26.2711C87.9493 26.2711 88.282 26.2064 88.5271 26.0771C88.7722 25.9436 88.8948 25.7642 88.8948 25.5389C88.8948 25.3554 88.8241 25.2177 88.6826 25.1259C88.5418 25.0342 88.2862 24.9653 87.9164 24.9194L86.9064 24.788C86.3412 24.7129 85.93 24.5731 85.6723 24.3687C85.4188 24.1601 85.292 23.866 85.292 23.4864C85.292 23.1985 85.3767 22.9503 85.5476 22.7417C85.722 22.5289 85.9672 22.3662 86.283 22.2536C86.5989 22.1368 86.9687 22.0784 87.3925 22.0784C87.812 22.0784 88.1839 22.1409 88.5082 22.2661C88.8325 22.3913 89.0902 22.5665 89.2814 22.7918C89.4768 23.0129 89.5826 23.2736 89.5994 23.574H88.7638C88.7428 23.4071 88.6728 23.2632 88.5523 23.1422C88.4353 23.0212 88.2778 22.9273 88.0781 22.8606C87.8785 22.7897 87.6439 22.7542 87.3735 22.7542C86.9918 22.7542 86.6858 22.8168 86.4574 22.9419C86.2291 23.0671 86.115 23.2382 86.115 23.4551C86.115 23.6219 86.1815 23.7513 86.3139 23.8431C86.4511 23.9307 86.6879 23.9974 87.0248 24.0433L88.0473 24.1873C88.4669 24.2457 88.7974 24.3249 89.0384 24.425C89.2835 24.521 89.4579 24.6524 89.5616 24.8193C89.6659 24.982 89.7178 25.1927 89.7178 25.4513C89.7178 25.7517 89.626 26.0145 89.4432 26.2398C89.2604 26.4651 89.0027 26.6403 88.6707 26.7655C88.3422 26.8865 87.9577 26.9469 87.5171 26.9469C87.0682 26.9469 86.6718 26.8802 86.3265 26.7467C85.9861 26.609 85.7157 26.4192 85.5161 26.1772C85.3165 25.9353 85.2086 25.6537 85.1918 25.3324Z" fill="url(#paint0_radial_0_1)"/>
<g id="Group" filter="url(#filter0_d_0_1)">
<path id="Vector_2" d="M37.5136 0.253692C38.0741 2.09872 40.3615 3.82844 43.7355 4.95852C45.5766 5.58122 46.7777 6.36538 47.1324 7.16105L47.3382 7.63383L47.5325 7.19564C47.9441 6.27313 47.7383 5.46591 46.9034 4.63565C46.24 3.9899 45.3594 3.57474 43.278 2.95206C41.2537 2.34089 39.5838 1.54522 38.3715 0.622697C37.914 0.288286 37.5136 0 37.4909 0C37.4564 0 37.4679 0.115315 37.5136 0.253692Z" fill="#FF2828"/>
<path id="Vector_3" d="M38.3028 2.76772C38.4517 3.50572 38.8291 4.13994 39.4924 4.75112C40.3044 5.50071 41.0821 5.97346 42.5804 6.63076C43.7585 7.14964 44.5362 7.62249 44.9363 8.07214C45.2108 8.38356 45.2223 9.02931 44.9593 9.55981C44.8564 9.77877 44.7877 9.97487 44.8107 9.99793C44.9021 10.0902 46.2403 8.98318 46.4576 8.61411C46.9037 7.89917 46.9037 7.5879 46.4346 7.05739C45.9771 6.55003 45.1194 6.07724 42.9923 5.1778C41.448 4.53203 39.8241 3.63259 39.0464 3.02141C38.1428 2.30645 38.2114 2.32952 38.3028 2.76772Z" fill="#FCC200"/>
<path id="Vector_4" d="M48.2528 3.70168C47.4754 3.88619 47.4639 3.88619 47.7153 4.24367C47.8412 4.41663 48.0358 4.83179 48.1387 5.16619C48.6304 6.66528 47.784 8.31426 45.7825 9.81332C45.3479 10.1478 44.9935 10.4245 44.9935 10.436C44.9935 10.4476 45.2565 10.413 45.5767 10.3669C47.3379 10.0901 48.8135 9.11005 49.4881 7.78382C49.5795 7.58779 49.7511 7.09194 49.8542 6.68836C50.1057 5.71968 50.3115 5.38525 50.8263 5.08548C51.341 4.79719 51.8213 4.77411 52.1757 5.02784C52.416 5.2008 52.4275 5.18927 52.4275 4.87789C52.4275 4.70493 52.3817 4.49736 52.3361 4.42819C52.1986 4.20907 51.7756 4.03611 51.3982 4.03611C51.1921 4.03611 50.9065 3.93232 50.7461 3.80546C50.5061 3.62097 50.2888 3.57484 49.5797 3.58637C49.0992 3.59793 48.5046 3.64402 48.2528 3.70168Z" fill="#008A4D"/>
<path id="Vector_5" d="M39.1602 5.26991C39.1602 5.65047 39.7321 6.66525 40.144 7.03425C40.3613 7.21875 41.116 7.66847 41.8251 8.01448C43.2546 8.70628 43.918 9.21359 44.1353 9.72103L44.2841 10.0785L44.4784 9.68651C44.7529 9.156 44.65 8.48719 44.227 8.049C43.7809 7.57622 43.1405 7.20715 42.0196 6.80363C40.9102 6.40003 40.2239 6.01947 39.6062 5.45443C39.2289 5.10848 39.1602 5.0854 39.1602 5.26991Z" fill="#00A2DE"/>
</g>
<path id="Vector_6" d="M0.489136 15.8398H3.35611C3.4014 16.1217 3.53275 16.3672 3.75015 16.5764C3.96755 16.7856 4.25742 16.9493 4.61975 17.0675C4.99115 17.1766 5.42595 17.2312 5.92415 17.2312C6.61259 17.2312 7.15607 17.1447 7.55466 16.972C7.95325 16.7901 8.15251 16.5264 8.15251 16.1808C8.15251 15.9171 8.03926 15.7125 7.81282 15.567C7.58639 15.4215 7.15159 15.3169 6.50842 15.2533L4.60616 15.0759C3.20211 14.9486 2.18305 14.6304 1.54896 14.1211C0.914881 13.6028 0.597836 12.9071 0.597836 12.0341C0.597836 11.3248 0.801649 10.7246 1.20928 10.2335C1.62596 9.74246 2.2057 9.37416 2.94848 9.12863C3.70033 8.87403 4.57446 8.74669 5.57088 8.74669C6.54918 8.74669 7.41879 8.88767 8.17969 9.16955C8.94059 9.44236 9.543 9.83337 9.98683 10.3426C10.4398 10.8519 10.6843 11.443 10.7206 12.1159H7.86717C7.83096 11.8704 7.71316 11.6612 7.5139 11.4885C7.32367 11.3066 7.06096 11.1702 6.72582 11.0792C6.39066 10.9792 5.98756 10.9292 5.51653 10.9292C4.88245 10.9292 4.37971 11.0156 4.00831 11.1884C3.63692 11.3521 3.45122 11.5976 3.45122 11.925C3.45122 12.1614 3.55992 12.3524 3.77732 12.4979C4.00378 12.6433 4.40688 12.7434 4.98661 12.798L7.01116 13.0026C7.98043 13.0935 8.75492 13.2527 9.33463 13.48C9.91434 13.6982 10.3356 14.0029 10.5983 14.3939C10.861 14.7849 10.9923 15.2715 10.9923 15.8535C10.9923 16.5718 10.7795 17.1993 10.3537 17.7359C9.92793 18.2633 9.33008 18.6771 8.56014 18.9772C7.7902 19.2682 6.8934 19.4137 5.8698 19.4137C4.81903 19.4137 3.89055 19.2682 3.08436 18.9772C2.28722 18.6771 1.6622 18.2588 1.20928 17.7222C0.756355 17.1766 0.516311 16.5491 0.489136 15.8398ZM12.159 8.69213H14.9445V19.1954H12.159V8.69213ZM17.7843 11.1747C18.5361 11.1747 19.1702 11.3248 19.6865 11.6249C20.212 11.925 20.615 12.3478 20.8958 12.8934C21.1767 13.4391 21.317 14.0847 21.317 14.8304V19.1954H18.5316V15.2396C18.5316 14.6577 18.3821 14.212 18.0832 13.9028C17.7934 13.5937 17.3722 13.4391 16.8195 13.4391C16.4391 13.4391 16.104 13.5209 15.8141 13.6846C15.5333 13.8483 15.3159 14.0802 15.1619 14.3803C15.017 14.6804 14.9445 15.035 14.9445 15.4442L14.0749 14.9941C14.1836 14.1666 14.4146 13.4709 14.7678 12.9071C15.1211 12.3342 15.5559 11.9022 16.0722 11.6112C16.5977 11.3202 17.1683 11.1747 17.7843 11.1747ZM29.759 19.1954L29.4057 16.3854L29.7725 15.3078L29.4057 14.2302L29.759 11.4066H32.6395L32.1504 15.2942L32.6395 19.1954H29.759ZM30.4112 15.3078C30.2843 16.1263 30.0307 16.8447 29.6503 17.4631C29.2788 18.0814 28.8033 18.5634 28.2236 18.909C27.6529 19.2454 27.0007 19.4137 26.267 19.4137C25.5061 19.4137 24.8357 19.2454 24.256 18.909C23.6853 18.5634 23.2369 18.0814 22.9108 17.4631C22.5847 16.8356 22.4217 16.1172 22.4217 15.3078C22.4217 14.4803 22.5847 13.7574 22.9108 13.139C23.2369 12.5206 23.6853 12.0387 24.256 11.6931C24.8357 11.3475 25.5061 11.1747 26.267 11.1747C27.0007 11.1747 27.6529 11.3475 28.2236 11.6931C28.8033 12.0295 29.2834 12.5069 29.6638 13.1253C30.0443 13.7346 30.2934 14.4621 30.4112 15.3078ZM25.2343 15.3078C25.2343 15.6898 25.3113 16.0308 25.4653 16.3309C25.6283 16.631 25.8502 16.8674 26.1311 17.0402C26.4119 17.2039 26.7334 17.2857 27.0958 17.2857C27.4762 17.2857 27.834 17.2039 28.1692 17.0402C28.5043 16.8674 28.7987 16.631 29.0524 16.3309C29.306 16.0308 29.4962 15.6898 29.6231 15.3078C29.4962 14.9168 29.306 14.5712 29.0524 14.2711C28.7987 13.9711 28.5043 13.7346 28.1692 13.5618C27.834 13.3891 27.4762 13.3027 27.0958 13.3027C26.7334 13.3027 26.4119 13.3891 26.1311 13.5618C25.8502 13.7346 25.6283 13.9711 25.4653 14.2711C25.3113 14.5712 25.2343 14.9168 25.2343 15.3078ZM42.9418 16.6583C42.9418 17.2584 42.7607 17.7631 42.3983 18.1724C42.036 18.5816 41.5197 18.8907 40.8493 19.0999C40.1791 19.3091 39.3728 19.4137 38.4308 19.4137C37.4616 19.4137 36.61 19.2955 35.8763 19.059C35.1517 18.8225 34.5855 18.4907 34.1779 18.0632C33.7702 17.6358 33.5528 17.1402 33.5256 16.5764H36.3383C36.4017 16.7856 36.524 16.9674 36.7051 17.122C36.8954 17.2675 37.1445 17.3812 37.4524 17.4631C37.7605 17.5358 38.1273 17.5722 38.553 17.5722C39.1056 17.5722 39.5223 17.5176 39.8031 17.4085C40.093 17.2994 40.2379 17.1357 40.2379 16.9174C40.2379 16.7447 40.1292 16.6173 39.9118 16.5355C39.6944 16.4446 39.323 16.3764 38.7976 16.3309L37.4253 16.2218C36.5104 16.1581 35.7812 16.0217 35.2377 15.8125C34.7033 15.5943 34.3183 15.3169 34.0827 14.9805C33.8473 14.6349 33.7295 14.2439 33.7295 13.8074C33.7295 13.2162 33.9107 12.7298 34.273 12.3478C34.6444 11.9568 35.1562 11.6658 35.8084 11.4748C36.4697 11.2748 37.2396 11.1747 38.1182 11.1747C38.9878 11.1747 39.7623 11.2884 40.4417 11.5157C41.1211 11.7431 41.6646 12.0614 42.0722 12.4706C42.4798 12.8707 42.7154 13.3436 42.7788 13.8892H39.9661C39.9209 13.7164 39.8212 13.5618 39.6672 13.4254C39.5133 13.2799 39.3004 13.1617 39.0286 13.0708C38.7569 12.9799 38.4081 12.9344 37.9824 12.9344C37.4842 12.9344 37.1037 12.9889 36.841 13.0981C36.5874 13.2072 36.4606 13.3618 36.4606 13.5618C36.4606 13.7164 36.5376 13.8392 36.6915 13.9301C36.8546 14.021 37.1535 14.0847 37.5883 14.1211L39.3955 14.2575C40.2922 14.3121 40.9988 14.4439 41.5151 14.6531C42.0315 14.8531 42.3983 15.1214 42.6157 15.4579C42.8331 15.7943 42.9418 16.1945 42.9418 16.6583ZM51.1222 19.1954L50.7689 16.3854L51.1357 15.3078L50.7689 14.2302L51.1222 11.4066H54.0027L53.5136 15.2942L54.0027 19.1954H51.1222ZM51.7744 15.3078C51.6476 16.1263 51.3939 16.8447 51.0135 17.4631C50.6421 18.0814 50.1665 18.5634 49.5868 18.909C49.0161 19.2454 48.3639 19.4137 47.6302 19.4137C46.8692 19.4137 46.199 19.2454 45.6192 18.909C45.0485 18.5634 44.6001 18.0814 44.274 17.4631C43.9479 16.8356 43.7849 16.1172 43.7849 15.3078C43.7849 14.4803 43.9479 13.7574 44.274 13.139C44.6001 12.5206 45.0485 12.0387 45.6192 11.6931C46.199 11.3475 46.8692 11.1747 47.6302 11.1747C48.3639 11.1747 49.0161 11.3475 49.5868 11.6931C50.1665 12.0295 50.6466 12.5069 51.027 13.1253C51.4075 13.7346 51.6566 14.4621 51.7744 15.3078ZM46.5975 15.3078C46.5975 15.6898 46.6745 16.0308 46.8285 16.3309C46.9915 16.631 47.2135 16.8674 47.4943 17.0402C47.7751 17.2039 48.0967 17.2857 48.459 17.2857C48.8394 17.2857 49.1973 17.2039 49.5324 17.0402C49.8676 16.8674 50.162 16.631 50.4156 16.3309C50.6693 16.0308 50.8595 15.6898 50.9863 15.3078C50.8595 14.9168 50.6693 14.5712 50.4156 14.2711C50.162 13.9711 49.8676 13.7346 49.5324 13.5618C49.1973 13.3891 48.8394 13.3027 48.459 13.3027C48.0967 13.3027 47.7751 13.3891 47.4943 13.5618C47.2135 13.7346 46.9915 13.9711 46.8285 14.2711C46.6745 14.5712 46.5975 14.9168 46.5975 15.3078ZM54.9698 11.4066H57.7553L58.258 14.5167V19.1954H55.4861V14.0938L54.9698 11.4066ZM61.1114 11.1747C61.8541 11.1747 62.4882 11.3248 63.0136 11.6249C63.539 11.925 63.9376 12.3478 64.2093 12.8934C64.4901 13.4391 64.6306 14.0847 64.6306 14.8304V19.1954H61.8587V15.2396C61.8587 14.6577 61.7092 14.212 61.4103 13.9028C61.1204 13.5937 60.6992 13.4391 60.1467 13.4391C59.7662 13.4391 59.431 13.5209 59.1412 13.6846C58.8603 13.8483 58.6429 14.0802 58.489 14.3803C58.335 14.6804 58.258 15.035 58.258 15.4442L57.402 14.9941C57.5107 14.1666 57.7417 13.4709 58.0949 12.9071C58.4482 12.3342 58.883 11.9022 59.3994 11.6112C59.9157 11.3202 60.4864 11.1747 61.1114 11.1747ZM66.0581 11.2838L67.4576 11.5567L68.8435 11.2838V19.1954H66.0581V11.2838ZM67.444 10.6427C66.9639 10.6427 66.5744 10.5245 66.2755 10.2881C65.9766 10.0426 65.8271 9.71061 65.8271 9.29232C65.8271 8.8831 65.9766 8.55572 66.2755 8.31019C66.5744 8.06466 66.9639 7.94189 67.444 7.94189C67.9422 7.94189 68.3362 8.06466 68.6261 8.31019C68.9251 8.55572 69.0745 8.8831 69.0745 9.29232C69.0745 9.71061 68.9251 10.0426 68.6261 10.2881C68.3362 10.5245 67.9422 10.6427 67.444 10.6427ZM79.3653 16.6583C79.3653 17.2584 79.1846 17.7631 78.8218 18.1724C78.4597 18.5816 77.9435 18.8907 77.2732 19.0999C76.6029 19.3091 75.7968 19.4137 74.8548 19.4137C73.8854 19.4137 73.0338 19.2955 72.2997 19.059C71.5755 18.8225 71.0089 18.4907 70.6013 18.0632C70.1937 17.6358 69.9765 17.1402 69.9493 16.5764H72.762C72.825 16.7856 72.9476 16.9674 73.129 17.122C73.3188 17.2675 73.5682 17.3812 73.8763 17.4631C74.1838 17.5358 74.5508 17.5722 74.9766 17.5722C75.5292 17.5722 75.946 17.5176 76.2268 17.4085C76.5168 17.2994 76.6618 17.1357 76.6618 16.9174C76.6618 16.7447 76.5532 16.6173 76.3354 16.5355C76.1183 16.4446 75.7464 16.3764 75.2211 16.3309L73.849 16.2218C72.9343 16.1581 72.2052 16.0217 71.6617 15.8125C71.1266 15.5943 70.7421 15.3169 70.5068 14.9805C70.2707 14.6349 70.1531 14.2439 70.1531 13.8074C70.1531 13.2162 70.3345 12.7298 70.6966 12.3478C71.0678 11.9568 71.5798 11.6658 72.2318 11.4748C72.893 11.2748 73.6634 11.1747 74.5417 11.1747C75.4116 11.1747 76.1862 11.2884 76.8656 11.5157C77.545 11.7431 78.0885 12.0614 78.4961 12.4706C78.9037 12.8707 79.139 13.3436 79.2028 13.8892H76.39C76.3445 13.7164 76.245 13.5618 76.091 13.4254C75.9369 13.2799 75.724 13.1617 75.4522 13.0708C75.1804 12.9799 74.8317 12.9344 74.4058 12.9344C73.9078 12.9344 73.5275 12.9889 73.2649 13.0981C73.0113 13.2072 72.8846 13.3618 72.8846 13.5618C72.8846 13.7164 72.9609 13.8392 73.115 13.9301C73.2782 14.021 73.5773 14.0847 74.0122 14.1211L75.8192 14.2575C76.7157 14.3121 77.4224 14.4439 77.9386 14.6531C78.4555 14.8531 78.8218 15.1214 79.0396 15.4579C79.2567 15.7943 79.3653 16.1945 79.3653 16.6583ZM89.5293 16.6583C89.5293 17.2584 89.3486 17.7631 88.9858 18.1724C88.6237 18.5816 88.1075 18.8907 87.4373 19.0999C86.767 19.3091 85.9608 19.4137 85.0188 19.4137C84.0495 19.4137 83.1978 19.2955 82.4638 19.059C81.7396 18.8225 81.173 18.4907 80.7654 18.0632C80.3577 17.6358 80.1406 17.1402 80.1133 16.5764H82.926C82.9898 16.7856 83.1117 16.9674 83.2931 17.122C83.4829 17.2675 83.7322 17.3812 84.0404 17.4631C84.3485 17.5358 84.7148 17.5722 85.1407 17.5722C85.6933 17.5722 86.11 17.5176 86.3909 17.4085C86.6808 17.2994 86.8258 17.1357 86.8258 16.9174C86.8258 16.7447 86.7173 16.6173 86.4994 16.5355C86.2823 16.4446 85.9111 16.3764 85.3851 16.3309L84.0131 16.2218C83.0983 16.1581 82.3692 16.0217 81.8257 15.8125C81.2913 15.5943 80.9061 15.3169 80.6708 14.9805C80.4348 14.6349 80.3171 14.2439 80.3171 13.8074C80.3171 13.2162 80.4985 12.7298 80.8606 12.3478C81.2318 11.9568 81.7438 11.6658 82.3959 11.4748C83.0577 11.2748 83.8275 11.1747 84.7057 11.1747C85.5756 11.1747 86.3502 11.2884 87.0296 11.5157C87.709 11.7431 88.2525 12.0614 88.6601 12.4706C89.0678 12.8707 89.3031 13.3436 89.3668 13.8892H86.5541C86.5085 13.7164 86.4091 13.5618 86.255 13.4254C86.1009 13.2799 85.888 13.1617 85.6162 13.0708C85.3445 12.9799 84.9957 12.9344 84.5699 12.9344C84.0719 12.9344 83.6916 12.9889 83.4289 13.0981C83.1754 13.2072 83.0486 13.3618 83.0486 13.5618C83.0486 13.7164 83.1257 13.8392 83.279 13.9301C83.4422 14.021 83.7413 14.0847 84.1762 14.1211L85.9832 14.2575C86.8797 14.3121 87.5864 14.4439 88.1026 14.6531C88.6195 14.8531 88.9858 15.1214 89.2036 15.4579C89.4208 15.7943 89.5293 16.1945 89.5293 16.6583Z" fill="url(#paint1_radial_0_1)"/>
</g>
<defs>
<filter id="filter0_d_0_1" x="37.4708" y="0" width="14.9567" height="10.4382" filterUnits="userSpaceOnUse" color-interpolation-filters="sRGB">
<feFlood flood-opacity="0" result="BackgroundImageFix"/>
<feColorMatrix in="SourceAlpha" type="matrix" values="0 0 0 0 0 0 0 0 0 0 0 0 0 0 0 0 0 0 127 0" result="hardAlpha"/>
<feOffset/>
<feComposite in2="hardAlpha" operator="out"/>
<feColorMatrix type="matrix" values="0 0 0 0 0 0 0 0 0 0 0 0 0 0 0 0 0 0 1 0"/>
<feBlend mode="normal" in2="BackgroundImageFix" result="effect1_dropShadow_0_1"/>
<feBlend mode="normal" in="SourceGraphic" in2="effect1_dropShadow_0_1" result="shape"/>
</filter>
<radialGradient id="paint0_radial_0_1" cx="0" cy="0" r="1" gradientUnits="userSpaceOnUse" gradientTransform="translate(192.456 -13.8566) rotate(164.215) scale(181.209 818.329)">
<stop stop-color="#FF2828"/>
<stop offset="0.286458" stop-color="#FCC100"/>
<stop offset="0.599503" stop-color="#4EAC99"/>
<stop offset="0.671875" stop-color="#00A2DE"/>
<stop offset="1" stop-color="#008A4D"/>
</radialGradient>
<radialGradient id="paint1_radial_0_1" cx="0" cy="0" r="1" gradientUnits="userSpaceOnUse" gradientTransform="translate(47.4888 14.0535) rotate(-173.72) scale(83.4763 385.787)">
<stop stop-color="#FF2828"/>
<stop offset="0.15625" stop-color="#FD910D"/>
<stop offset="0.229167" stop-color="#FCC200"/>
<stop offset="0.432292" stop-color="#007AA6"/>
<stop offset="1" stop-color="#008A4D"/>
</radialGradient>
<clipPath id="clip0_0_1">
<rect width="90" height="27" fill="white"/>
</clipPath>
</defs>
</svg>
